<svg width="71" height="82" viewBox="0 0 71 82" fill="none" xmlns="http://www.w3.org/2000/svg">
<mask id="path-1-inside-1_6_12" fill="white">
<path d="M18.1712 10.9328L0.624023 21.088L0.659223 41.3984L0.712023 61.7088L18.048 71.7408C27.5872 77.2672 35.5424 81.7904 35.736 81.7904C35.9472 81.808 43.92 77.3024 53.4768 71.776L70.848 61.744L70.8128 41.3456L70.76 20.9472L53.424 10.9328C43.8848 5.424 36.0176 0.865598 35.912 0.830398C35.824 0.795198 27.8336 5.336 18.1712 10.9328ZM52.2096 12.9744L68.472 22.3728L68.5248 32.2464L68.56 42.12H68.1728C67.416 42.12 66.4656 41.7504 65.5328 41.1168C64.3184 40.2896 63.7552 40.0608 62.5408 39.92L61.5552 39.7968L61.4672 33.8656C61.3792 27.4064 61.344 27.072 60.2704 24.872C59.9008 24.1504 59.2848 23.3056 58.5456 22.5664C56.68 20.7008 54.4448 19.768 51.84 19.768C49.3408 19.768 47.2288 20.5776 45.4688 22.1968C44.1136 23.4464 43.3568 24.6432 42.7584 26.3856C42.1952 28.0576 42.1248 30.3808 42.5648 31.912C42.9168 33.1088 43.92 34.7984 45.0288 36.048L45.856 36.9984V41.856V46.7312L45.0464 47.6288C43.2688 49.6176 42.4592 51.6768 42.4768 54.264C42.4768 59.0512 45.504 62.9056 49.992 63.856C51.5408 64.1728 52.3152 64.1728 53.864 63.856C57.3312 63.1168 60.0768 60.512 61.0976 56.992C61.344 56.0944 61.4144 54.88 61.4672 48.8256L61.5552 41.7328L62.1888 41.8208C62.928 41.9088 63.6496 42.2256 65.128 43.0704C65.7616 43.4576 66.624 43.7744 67.3632 43.8976L68.56 44.1088V52.2224V60.336L52.1744 69.7696L35.8064 79.2032L19.4384 69.7696L3.08802 60.336V50.4448V40.536L3.66882 40.6592C4.54882 40.8176 5.34082 41.1872 6.23842 41.8384C7.15362 42.5072 8.10402 42.824 9.21282 42.824H9.95202V48.5792C9.95202 53.12 10.0224 54.5984 10.216 55.4784C11.096 59.1744 13.9824 62.0256 17.6608 62.8C19.1392 63.1168 19.9488 63.1168 21.4272 62.8C25.1056 62.0256 27.992 59.1744 28.872 55.4784C29.6112 52.2928 28.7488 49.336 26.2672 46.5904L25.44 45.6752V40.8528V36.0304L26.3024 35.1328C27.8864 33.4256 28.96 30.7856 28.96 28.568C28.96 26.2096 27.904 23.4112 26.408 21.7392C24.6656 19.8032 22.184 18.712 19.5088 18.712C16.6928 18.712 14.7568 19.504 12.856 21.4224C11.4128 22.8832 10.7792 23.9744 10.304 25.8576C9.98722 27.0896 9.95202 27.8112 9.95202 34.1296V41.0464L9.28322 40.9408C8.59682 40.8528 7.38242 40.3072 6.13282 39.5504C5.72802 39.304 4.88322 39.0048 4.28482 38.8816L3.17602 38.6528V30.504V22.3376L19.368 12.9744C28.2736 7.8176 35.648 3.5936 35.7536 3.5936C35.8592 3.576 43.2512 7.8 52.2096 12.9744ZM16.728 24.1856C18.2064 25.6288 16.3936 28.216 14.5456 27.2656C13.032 26.4736 13.0496 24.3968 14.5808 23.7104C15.32 23.3936 16.0768 23.552 16.728 24.1856ZM53.6 25.6816C53.7056 25.928 53.776 26.4736 53.776 26.9136V27.688H55.0256C56.4512 27.688 56.944 27.8816 56.944 28.4448C56.944 29.1136 56.6096 29.272 55.1488 29.272H53.776V30.2928C53.776 31.472 53.424 32.1408 52.8432 32.0528C52.3328 31.9824 52.016 31.296 52.016 30.1872V29.272H50.8192C49.5344 29.272 49.2 29.096 49.2 28.4448C49.2 27.8992 49.6928 27.688 50.9248 27.688H51.9808L52.0512 26.6144C52.1392 25.488 52.3152 25.224 53.0368 25.224C53.3008 25.224 53.4944 25.3648 53.6 25.6816ZM22.2016 29.6416C22.6768 29.888 23.152 30.6976 23.152 31.296C23.152 32.3168 22.184 33.32 21.216 33.32C20.7056 33.32 19.8784 32.8624 19.5616 32.4048C19.4032 32.1936 19.28 31.6832 19.28 31.2784C19.28 29.7296 20.7232 28.9376 22.2016 29.6416ZM18.9984 36.4176C19.2096 36.6112 19.28 37.0512 19.28 38.0016C19.28 39.5152 19.0864 40.008 18.5232 40.008C17.8368 40.008 17.696 39.6912 17.696 38.072C17.696 36.5232 17.8368 36.136 18.4176 36.136C18.5936 36.136 18.8576 36.2592 18.9984 36.4176ZM53.4944 37.2272C53.8112 37.6848 53.8816 39.5328 53.6 40.2544C53.3536 40.9232 52.4384 40.9056 52.1744 40.2192C51.928 39.5856 52.0512 37.4912 52.3504 37.1216C52.6848 36.7168 53.1776 36.7696 53.4944 37.2272ZM18.9984 42.2256C19.3504 42.56 19.4032 45.2704 19.0688 45.6048C18.7696 45.904 17.9248 45.8688 17.8016 45.5344C17.608 45.024 17.6784 42.384 17.9072 42.1552C18.2064 41.856 18.6816 41.8912 18.9984 42.2256ZM53.4944 43.0352C53.8112 43.4928 53.8816 45.3408 53.6 46.0624C53.3536 46.7312 52.4384 46.7136 52.1744 46.0272C51.928 45.3936 52.0512 43.2992 52.3504 42.9296C52.6848 42.5248 53.1776 42.5776 53.4944 43.0352ZM51.2768 49.7936C51.7168 50.0928 52.192 50.92 52.192 51.36C52.192 51.9056 51.664 52.7856 51.1536 53.0848C50.1328 53.6832 48.9184 53.2784 48.3904 52.1872C48.0208 51.4128 48.2848 50.4096 48.9712 49.8816C49.5168 49.4416 50.7136 49.3888 51.2768 49.7936ZM18.9632 50.8672C19.2096 51.0784 19.28 51.4128 19.28 52.2752V53.384H20.4768C21.7968 53.384 22.096 53.56 22.096 54.2816C22.096 54.8624 21.8496 54.968 20.4064 54.968H19.28V56.0064C19.28 56.904 19.2272 57.0976 18.8928 57.3264C18.4 57.6784 18.312 57.6784 17.9776 57.3264C17.784 57.1504 17.696 56.728 17.696 56.0064V54.968H16.2352C14.6864 54.968 14.352 54.8272 14.352 54.1408C14.352 53.5776 14.8448 53.384 16.3584 53.384H17.696V52.2576C17.696 50.744 18.2064 50.1808 18.9632 50.8672ZM57.2784 55.7776C58.6688 56.9392 57.7712 59.192 55.9232 59.192C55.4832 59.192 55.1664 59.0336 54.7264 58.5936C54.216 58.0832 54.128 57.872 54.128 57.168C54.128 56.464 54.216 56.2704 54.6736 55.8304C55.4128 55.144 56.504 55.1264 57.2784 55.7776Z"/>
</mask>
<path d="M18.1712 10.9328L0.624023 21.088L0.659223 41.3984L0.712023 61.7088L18.048 71.7408C27.5872 77.2672 35.5424 81.7904 35.736 81.7904C35.9472 81.808 43.92 77.3024 53.4768 71.776L70.848 61.744L70.8128 41.3456L70.76 20.9472L53.424 10.9328C43.8848 5.424 36.0176 0.865598 35.912 0.830398C35.824 0.795198 27.8336 5.336 18.1712 10.9328ZM52.2096 12.9744L68.472 22.3728L68.5248 32.2464L68.56 42.12H68.1728C67.416 42.12 66.4656 41.7504 65.5328 41.1168C64.3184 40.2896 63.7552 40.0608 62.5408 39.92L61.5552 39.7968L61.4672 33.8656C61.3792 27.4064 61.344 27.072 60.2704 24.872C59.9008 24.1504 59.2848 23.3056 58.5456 22.5664C56.68 20.7008 54.4448 19.768 51.84 19.768C49.3408 19.768 47.2288 20.5776 45.4688 22.1968C44.1136 23.4464 43.3568 24.6432 42.7584 26.3856C42.1952 28.0576 42.1248 30.3808 42.5648 31.912C42.9168 33.1088 43.92 34.7984 45.0288 36.048L45.856 36.9984V41.856V46.7312L45.0464 47.6288C43.2688 49.6176 42.4592 51.6768 42.4768 54.264C42.4768 59.0512 45.504 62.9056 49.992 63.856C51.5408 64.1728 52.3152 64.1728 53.864 63.856C57.3312 63.1168 60.0768 60.512 61.0976 56.992C61.344 56.0944 61.4144 54.88 61.4672 48.8256L61.5552 41.7328L62.1888 41.8208C62.928 41.9088 63.6496 42.2256 65.128 43.0704C65.7616 43.4576 66.624 43.7744 67.3632 43.8976L68.56 44.1088V52.2224V60.336L52.1744 69.7696L35.8064 79.2032L19.4384 69.7696L3.08802 60.336V50.4448V40.536L3.66882 40.6592C4.54882 40.8176 5.34082 41.1872 6.23842 41.8384C7.15362 42.5072 8.10402 42.824 9.21282 42.824H9.95202V48.5792C9.95202 53.12 10.0224 54.5984 10.216 55.4784C11.096 59.1744 13.9824 62.0256 17.6608 62.8C19.1392 63.1168 19.9488 63.1168 21.4272 62.8C25.1056 62.0256 27.992 59.1744 28.872 55.4784C29.6112 52.2928 28.7488 49.336 26.2672 46.5904L25.44 45.6752V40.8528V36.0304L26.3024 35.1328C27.8864 33.4256 28.96 30.7856 28.96 28.568C28.96 26.2096 27.904 23.4112 26.408 21.7392C24.6656 19.8032 22.184 18.712 19.5088 18.712C16.6928 18.712 14.7568 19.504 12.856 21.4224C11.4128 22.8832 10.7792 23.9744 10.304 25.8576C9.98722 27.0896 9.95202 27.8112 9.95202 34.1296V41.0464L9.28322 40.9408C8.59682 40.8528 7.38242 40.3072 6.13282 39.5504C5.72802 39.304 4.88322 39.0048 4.28482 38.8816L3.17602 38.6528V30.504V22.3376L19.368 12.9744C28.2736 7.8176 35.648 3.5936 35.7536 3.5936C35.8592 3.576 43.2512 7.8 52.2096 12.9744ZM16.728 24.1856C18.2064 25.6288 16.3936 28.216 14.5456 27.2656C13.032 26.4736 13.0496 24.3968 14.5808 23.7104C15.32 23.3936 16.0768 23.552 16.728 24.1856ZM53.6 25.6816C53.7056 25.928 53.776 26.4736 53.776 26.9136V27.688H55.0256C56.4512 27.688 56.944 27.8816 56.944 28.4448C56.944 29.1136 56.6096 29.272 55.1488 29.272H53.776V30.2928C53.776 31.472 53.424 32.1408 52.8432 32.0528C52.3328 31.9824 52.016 31.296 52.016 30.1872V29.272H50.8192C49.5344 29.272 49.2 29.096 49.2 28.4448C49.2 27.8992 49.6928 27.688 50.9248 27.688H51.9808L52.0512 26.6144C52.1392 25.488 52.3152 25.224 53.0368 25.224C53.3008 25.224 53.4944 25.3648 53.6 25.6816ZM22.2016 29.6416C22.6768 29.888 23.152 30.6976 23.152 31.296C23.152 32.3168 22.184 33.32 21.216 33.32C20.7056 33.32 19.8784 32.8624 19.5616 32.4048C19.4032 32.1936 19.28 31.6832 19.28 31.2784C19.28 29.7296 20.7232 28.9376 22.2016 29.6416ZM18.9984 36.4176C19.2096 36.6112 19.28 37.0512 19.28 38.0016C19.28 39.5152 19.0864 40.008 18.5232 40.008C17.8368 40.008 17.696 39.6912 17.696 38.072C17.696 36.5232 17.8368 36.136 18.4176 36.136C18.5936 36.136 18.8576 36.2592 18.9984 36.4176ZM53.4944 37.2272C53.8112 37.6848 53.8816 39.5328 53.6 40.2544C53.3536 40.9232 52.4384 40.9056 52.1744 40.2192C51.928 39.5856 52.0512 37.4912 52.3504 37.1216C52.6848 36.7168 53.1776 36.7696 53.4944 37.2272ZM18.9984 42.2256C19.3504 42.56 19.4032 45.2704 19.0688 45.6048C18.7696 45.904 17.9248 45.8688 17.8016 45.5344C17.608 45.024 17.6784 42.384 17.9072 42.1552C18.2064 41.856 18.6816 41.8912 18.9984 42.2256ZM53.4944 43.0352C53.8112 43.4928 53.8816 45.3408 53.6 46.0624C53.3536 46.7312 52.4384 46.7136 52.1744 46.0272C51.928 45.3936 52.0512 43.2992 52.3504 42.9296C52.6848 42.5248 53.1776 42.5776 53.4944 43.0352ZM51.2768 49.7936C51.7168 50.0928 52.192 50.92 52.192 51.36C52.192 51.9056 51.664 52.7856 51.1536 53.0848C50.1328 53.6832 48.9184 53.2784 48.3904 52.1872C48.0208 51.4128 48.2848 50.4096 48.9712 49.8816C49.5168 49.4416 50.7136 49.3888 51.2768 49.7936ZM18.9632 50.8672C19.2096 51.0784 19.28 51.4128 19.28 52.2752V53.384H20.4768C21.7968 53.384 22.096 53.56 22.096 54.2816C22.096 54.8624 21.8496 54.968 20.4064 54.968H19.28V56.0064C19.28 56.904 19.2272 57.0976 18.8928 57.3264C18.4 57.6784 18.312 57.6784 17.9776 57.3264C17.784 57.1504 17.696 56.728 17.696 56.0064V54.968H16.2352C14.6864 54.968 14.352 54.8272 14.352 54.1408C14.352 53.5776 14.8448 53.384 16.3584 53.384H17.696V52.2576C17.696 50.744 18.2064 50.1808 18.9632 50.8672ZM57.2784 55.7776C58.6688 56.9392 57.7712 59.192 55.9232 59.192C55.4832 59.192 55.1664 59.0336 54.7264 58.5936C54.216 58.0832 54.128 57.872 54.128 57.168C54.128 56.464 54.216 56.2704 54.6736 55.8304C55.4128 55.144 56.504 55.1264 57.2784 55.7776Z" fill="#6441A4" stroke="#3E207F" stroke-width="2" mask="url(#path-1-inside-1_6_12)"/>
</svg>
