<svg width="314" height="288" viewBox="0 0 314 288" fill="none" xmlns="http://www.w3.org/2000/svg">
<mask id="path-1-inside-1_73_294" fill="white">
<path d="M113.507 25.4053L70.2563 50.4301L70.3431 100.48L70.4732 150.529L113.203 175.251C136.715 188.869 156.323 200.015 156.8 200.015C157.321 200.059 176.972 188.956 200.527 175.337L243.344 150.616L243.257 100.35L243.127 50.0831L200.397 25.4053C176.885 11.8303 157.494 0.5973 157.234 0.510559C157.017 0.423818 137.322 11.6134 113.507 25.4053ZM197.404 30.4363L237.487 53.5962L237.618 77.9271L237.704 102.258H236.75C234.885 102.258 232.542 101.347 230.243 99.7858C227.25 97.7474 225.862 97.1836 222.868 96.8366L220.439 96.533L220.222 81.9171C220.005 66.0001 219.918 65.1761 217.272 59.7548C216.361 57.9766 214.843 55.8948 213.021 54.0732C208.423 49.476 202.913 47.1773 196.493 47.1773C190.333 47.1773 185.127 49.1724 180.789 53.1624C177.449 56.2418 175.584 59.191 174.109 63.4846C172.721 67.6049 172.547 73.3298 173.632 77.103C174.499 80.0522 176.972 84.2158 179.705 87.2951L181.744 89.6371V101.607V113.621L179.748 115.833C175.367 120.734 173.371 125.808 173.415 132.184C173.415 143.98 180.876 153.479 191.938 155.821C195.756 156.601 197.664 156.601 201.482 155.821C210.028 153.999 216.795 147.58 219.311 138.906C219.918 136.694 220.092 133.702 220.222 118.782L220.439 101.304L222.001 101.521C223.823 101.738 225.601 102.518 229.245 104.6C230.807 105.554 232.933 106.335 234.755 106.638L237.704 107.159V127.153V147.147L197.317 170.393L156.974 193.64L116.63 170.393L76.3296 147.147V122.772V98.3546L77.7611 98.6582C79.9302 99.0485 81.8823 99.9593 84.0947 101.564C86.3504 103.212 88.693 103.993 91.4259 103.993H93.2479V118.175C93.2479 129.365 93.4214 133.008 93.8986 135.176C96.0676 144.284 103.182 151.31 112.248 153.218C115.892 153.999 117.888 153.999 121.532 153.218C130.598 151.31 137.713 144.284 139.882 135.176C141.704 127.326 139.578 120.04 133.461 113.274L131.423 111.019V99.1353V87.2517L133.548 85.0398C137.452 80.8329 140.099 74.3273 140.099 68.8626C140.099 63.0509 137.496 56.155 133.809 52.0348C129.514 47.2641 123.397 44.5751 116.803 44.5751C109.863 44.5751 105.091 46.5268 100.406 51.2541C96.8485 54.8539 95.2868 57.5429 94.1155 62.1835C93.3347 65.2195 93.2479 66.9977 93.2479 82.5677V99.6123L91.5995 99.3521C89.9076 99.1353 86.9144 97.7908 83.8344 95.9258C82.8366 95.3187 80.7544 94.5814 79.2795 94.2778L76.5465 93.7139V73.6334V53.5094L116.456 30.4363C138.407 17.7287 156.583 7.31974 156.843 7.31974C157.104 7.27637 175.323 17.6853 197.404 30.4363ZM109.949 58.0633C113.593 61.6197 109.125 67.9952 104.57 65.6532C100.839 63.7015 100.883 58.5838 104.657 56.8923C106.479 56.1116 108.344 56.502 109.949 58.0633ZM200.831 61.7498C201.091 62.357 201.265 63.7015 201.265 64.7858V66.6941H204.345C207.859 66.6941 209.073 67.1711 209.073 68.559C209.073 70.2071 208.249 70.5974 204.649 70.5974H201.265V73.1129C201.265 76.0187 200.397 77.6668 198.966 77.45C197.708 77.2765 196.927 75.585 196.927 72.8527V70.5974H193.977C190.81 70.5974 189.986 70.1637 189.986 68.559C189.986 67.2145 191.201 66.6941 194.237 66.6941H196.84L197.014 64.0485C197.231 61.2727 197.664 60.6222 199.443 60.6222C200.094 60.6222 200.571 60.9692 200.831 61.7498ZM123.441 71.5082C124.612 72.1154 125.783 74.1104 125.783 75.585C125.783 78.1005 123.397 80.5727 121.011 80.5727C119.753 80.5727 117.714 79.445 116.934 78.3174C116.543 77.7969 116.239 76.5392 116.239 75.5417C116.239 71.7251 119.797 69.7734 123.441 71.5082ZM115.545 88.2059C116.066 88.683 116.239 89.7672 116.239 92.1092C116.239 95.8391 115.762 97.0535 114.374 97.0535C112.682 97.0535 112.335 96.2728 112.335 92.2827C112.335 88.4661 112.682 87.512 114.114 87.512C114.548 87.512 115.198 87.8155 115.545 88.2059ZM200.571 90.2009C201.352 91.3286 201.525 95.8825 200.831 97.6607C200.224 99.3088 197.968 99.2654 197.317 97.5739C196.71 96.0126 197.014 90.8515 197.751 89.9407C198.575 88.9432 199.79 89.0733 200.571 90.2009ZM115.545 102.518C116.413 103.342 116.543 110.021 115.719 110.845C114.981 111.583 112.899 111.496 112.596 110.672C112.118 109.414 112.292 102.909 112.856 102.345C113.593 101.607 114.765 101.694 115.545 102.518ZM200.571 104.513C201.352 105.641 201.525 110.195 200.831 111.973C200.224 113.621 197.968 113.578 197.317 111.886C196.71 110.325 197.014 105.164 197.751 104.253C198.575 103.255 199.79 103.386 200.571 104.513ZM195.105 121.168C196.189 121.905 197.361 123.943 197.361 125.028C197.361 126.372 196.059 128.541 194.801 129.278C192.285 130.752 189.292 129.755 187.991 127.066C187.08 125.158 187.73 122.685 189.422 121.384C190.767 120.3 193.717 120.17 195.105 121.168ZM115.459 123.813C116.066 124.334 116.239 125.158 116.239 127.283V130.015H119.189C122.443 130.015 123.18 130.449 123.18 132.227C123.18 133.658 122.573 133.918 119.016 133.918H116.239V136.477C116.239 138.689 116.109 139.166 115.285 139.73C114.07 140.598 113.854 140.598 113.029 139.73C112.552 139.296 112.335 138.256 112.335 136.477V133.918H108.735C104.917 133.918 104.093 133.572 104.093 131.88C104.093 130.492 105.308 130.015 109.038 130.015H112.335V127.239C112.335 123.51 113.593 122.122 115.459 123.813ZM209.898 135.914C213.325 138.776 211.112 144.327 206.557 144.327C205.473 144.327 204.692 143.937 203.607 142.853C202.349 141.595 202.133 141.075 202.133 139.34C202.133 137.605 202.349 137.128 203.477 136.044C205.299 134.352 207.989 134.309 209.898 135.914Z"/>
</mask>
<path d="M113.507 25.4053L70.2563 50.4301L70.3431 100.48L70.4732 150.529L113.203 175.251C136.715 188.869 156.323 200.015 156.8 200.015C157.321 200.059 176.972 188.956 200.527 175.337L243.344 150.616L243.257 100.35L243.127 50.0831L200.397 25.4053C176.885 11.8303 157.494 0.5973 157.234 0.510559C157.017 0.423818 137.322 11.6134 113.507 25.4053ZM197.404 30.4363L237.487 53.5962L237.618 77.9271L237.704 102.258H236.75C234.885 102.258 232.542 101.347 230.243 99.7858C227.25 97.7474 225.862 97.1836 222.868 96.8366L220.439 96.533L220.222 81.9171C220.005 66.0001 219.918 65.1761 217.272 59.7548C216.361 57.9766 214.843 55.8948 213.021 54.0732C208.423 49.476 202.913 47.1773 196.493 47.1773C190.333 47.1773 185.127 49.1724 180.789 53.1624C177.449 56.2418 175.584 59.191 174.109 63.4846C172.721 67.6049 172.547 73.3298 173.632 77.103C174.499 80.0522 176.972 84.2158 179.705 87.2951L181.744 89.6371V101.607V113.621L179.748 115.833C175.367 120.734 173.371 125.808 173.415 132.184C173.415 143.98 180.876 153.479 191.938 155.821C195.756 156.601 197.664 156.601 201.482 155.821C210.028 153.999 216.795 147.58 219.311 138.906C219.918 136.694 220.092 133.702 220.222 118.782L220.439 101.304L222.001 101.521C223.823 101.738 225.601 102.518 229.245 104.6C230.807 105.554 232.933 106.335 234.755 106.638L237.704 107.159V127.153V147.147L197.317 170.393L156.974 193.64L116.63 170.393L76.3296 147.147V122.772V98.3546L77.7611 98.6582C79.9302 99.0485 81.8823 99.9593 84.0947 101.564C86.3504 103.212 88.693 103.993 91.4259 103.993H93.2479V118.175C93.2479 129.365 93.4214 133.008 93.8986 135.176C96.0676 144.284 103.182 151.31 112.248 153.218C115.892 153.999 117.888 153.999 121.532 153.218C130.598 151.31 137.713 144.284 139.882 135.176C141.704 127.326 139.578 120.04 133.461 113.274L131.423 111.019V99.1353V87.2517L133.548 85.0398C137.452 80.8329 140.099 74.3273 140.099 68.8626C140.099 63.0509 137.496 56.155 133.809 52.0348C129.514 47.2641 123.397 44.5751 116.803 44.5751C109.863 44.5751 105.091 46.5268 100.406 51.2541C96.8485 54.8539 95.2868 57.5429 94.1155 62.1835C93.3347 65.2195 93.2479 66.9977 93.2479 82.5677V99.6123L91.5995 99.3521C89.9076 99.1353 86.9144 97.7908 83.8344 95.9258C82.8366 95.3187 80.7544 94.5814 79.2795 94.2778L76.5465 93.7139V73.6334V53.5094L116.456 30.4363C138.407 17.7287 156.583 7.31974 156.843 7.31974C157.104 7.27637 175.323 17.6853 197.404 30.4363ZM109.949 58.0633C113.593 61.6197 109.125 67.9952 104.57 65.6532C100.839 63.7015 100.883 58.5838 104.657 56.8923C106.479 56.1116 108.344 56.502 109.949 58.0633ZM200.831 61.7498C201.091 62.357 201.265 63.7015 201.265 64.7858V66.6941H204.345C207.859 66.6941 209.073 67.1711 209.073 68.559C209.073 70.2071 208.249 70.5974 204.649 70.5974H201.265V73.1129C201.265 76.0187 200.397 77.6668 198.966 77.45C197.708 77.2765 196.927 75.585 196.927 72.8527V70.5974H193.977C190.81 70.5974 189.986 70.1637 189.986 68.559C189.986 67.2145 191.201 66.6941 194.237 66.6941H196.84L197.014 64.0485C197.231 61.2727 197.664 60.6222 199.443 60.6222C200.094 60.6222 200.571 60.9692 200.831 61.7498ZM123.441 71.5082C124.612 72.1154 125.783 74.1104 125.783 75.585C125.783 78.1005 123.397 80.5727 121.011 80.5727C119.753 80.5727 117.714 79.445 116.934 78.3174C116.543 77.7969 116.239 76.5392 116.239 75.5417C116.239 71.7251 119.797 69.7734 123.441 71.5082ZM115.545 88.2059C116.066 88.683 116.239 89.7672 116.239 92.1092C116.239 95.8391 115.762 97.0535 114.374 97.0535C112.682 97.0535 112.335 96.2728 112.335 92.2827C112.335 88.4661 112.682 87.512 114.114 87.512C114.548 87.512 115.198 87.8155 115.545 88.2059ZM200.571 90.2009C201.352 91.3286 201.525 95.8825 200.831 97.6607C200.224 99.3088 197.968 99.2654 197.317 97.5739C196.71 96.0126 197.014 90.8515 197.751 89.9407C198.575 88.9432 199.79 89.0733 200.571 90.2009ZM115.545 102.518C116.413 103.342 116.543 110.021 115.719 110.845C114.981 111.583 112.899 111.496 112.596 110.672C112.118 109.414 112.292 102.909 112.856 102.345C113.593 101.607 114.765 101.694 115.545 102.518ZM200.571 104.513C201.352 105.641 201.525 110.195 200.831 111.973C200.224 113.621 197.968 113.578 197.317 111.886C196.71 110.325 197.014 105.164 197.751 104.253C198.575 103.255 199.79 103.386 200.571 104.513ZM195.105 121.168C196.189 121.905 197.361 123.943 197.361 125.028C197.361 126.372 196.059 128.541 194.801 129.278C192.285 130.752 189.292 129.755 187.991 127.066C187.08 125.158 187.73 122.685 189.422 121.384C190.767 120.3 193.717 120.17 195.105 121.168ZM115.459 123.813C116.066 124.334 116.239 125.158 116.239 127.283V130.015H119.189C122.443 130.015 123.18 130.449 123.18 132.227C123.18 133.658 122.573 133.918 119.016 133.918H116.239V136.477C116.239 138.689 116.109 139.166 115.285 139.73C114.07 140.598 113.854 140.598 113.029 139.73C112.552 139.296 112.335 138.256 112.335 136.477V133.918H108.735C104.917 133.918 104.093 133.572 104.093 131.88C104.093 130.492 105.308 130.015 109.038 130.015H112.335V127.239C112.335 123.51 113.593 122.122 115.459 123.813ZM209.898 135.914C213.325 138.776 211.112 144.327 206.557 144.327C205.473 144.327 204.692 143.937 203.607 142.853C202.349 141.595 202.133 141.075 202.133 139.34C202.133 137.605 202.349 137.128 203.477 136.044C205.299 134.352 207.989 134.309 209.898 135.914Z" fill="#6441A4" stroke="#3E207F" stroke-width="2" mask="url(#path-1-inside-1_73_294)"/>
<path d="M18.4722 232.44H35.5922C35.9389 232.44 36.1122 232.28 36.1122 231.96V228.28C36.1122 228.173 36.0589 228.067 35.9522 227.96C35.8455 227.853 35.7255 227.8 35.5922 227.8H18.4722V222.04H38.9522C39.2722 222.04 39.5922 222.16 39.9122 222.4C40.2322 222.613 40.5255 222.893 40.7922 223.24C41.0855 223.587 41.3122 223.973 41.4722 224.4C41.6589 224.8 41.7522 225.187 41.7522 225.56V233.48C41.7522 234.333 41.6455 235.067 41.4322 235.68C41.2455 236.293 40.9789 236.787 40.6322 237.16C40.2855 237.533 39.8989 237.813 39.4722 238C39.0455 238.16 38.6055 238.24 38.1522 238.24H24.1522V247H18.4722V232.44ZM44.7222 247H65.4822V241.24H50.3622V222.04H44.7222V247ZM94.4331 247H88.4331L86.8331 243.6H75.1931L73.6731 247H67.6331L78.1931 222.04H83.8331L94.4331 247ZM84.5931 237.84L81.0331 229.64L77.5131 237.84H84.5931ZM99.0906 236.12L88.5306 222.04H95.7706L101.971 230.04L108.091 222.04H115.331L104.731 236.12V247H99.0906V236.12ZM139.155 247H144.795V227.8H152.435V222.04H131.675V227.8H139.155V247ZM155.386 226.52V242.52C155.386 243.32 155.506 244 155.746 244.56C156.013 245.12 156.346 245.587 156.746 245.96C157.173 246.307 157.64 246.573 158.146 246.76C158.68 246.92 159.213 247 159.746 247H174.346C174.853 247 175.36 246.907 175.866 246.72C176.373 246.533 176.84 246.253 177.266 245.88C177.693 245.48 178.04 245 178.306 244.44C178.573 243.88 178.706 243.24 178.706 242.52V226.52C178.706 225.8 178.573 225.16 178.306 224.6C178.04 224.04 177.693 223.573 177.266 223.2C176.84 222.8 176.373 222.507 175.866 222.32C175.36 222.133 174.853 222.04 174.346 222.04H159.746C159.213 222.04 158.68 222.133 158.146 222.32C157.64 222.48 157.173 222.747 156.746 223.12C156.346 223.467 156.013 223.92 155.746 224.48C155.506 225.04 155.386 225.72 155.386 226.52ZM173.026 241.24H161.026V227.8H173.026V241.24ZM195.816 247H216.576V241.24H201.456V237.48H209.416V231.72H201.456V227.8H216.576V222.04H195.816V247ZM245.527 247H239.527L237.927 243.6H226.287L224.767 247H218.727L229.287 222.04H234.927L245.527 247ZM235.687 237.84L232.127 229.64L228.607 237.84H235.687ZM247.691 247V232.44H263.851C264.171 232.44 264.331 232.28 264.331 231.96V228.28C264.331 228.173 264.278 228.067 264.171 227.96C264.091 227.853 263.984 227.8 263.851 227.8H247.691V222.04H267.411C267.704 222.04 268.011 222.16 268.331 222.4C268.678 222.613 268.984 222.893 269.251 223.24C269.544 223.587 269.784 223.973 269.971 224.4C270.158 224.8 270.251 225.187 270.251 225.56V233.48C270.251 234.333 270.091 235.067 269.771 235.68C269.478 236.293 269.078 236.8 268.571 237.2C268.091 237.573 267.531 237.853 266.891 238.04C266.278 238.2 265.638 238.28 264.971 238.28L272.291 247H264.731L256.891 238.28H253.371V247H247.691ZM290.479 247H296.519V222.04H290.879V237.32L279.359 222.04H273.199V247H278.879V231.84L290.479 247Z" fill="black"/>
<path d="M18.9553 274C19.9719 274.217 20.7886 274.725 21.4053 275.525C22.0219 276.308 22.3303 277.208 22.3303 278.225C22.3303 279.692 21.8136 280.858 20.7803 281.725C19.7636 282.575 18.3386 283 16.5053 283H8.33027V265.45H16.2303C18.0136 265.45 19.4053 265.858 20.4053 266.675C21.4219 267.492 21.9303 268.6 21.9303 270C21.9303 271.033 21.6553 271.892 21.1053 272.575C20.5719 273.258 19.8553 273.733 18.9553 274ZM12.6053 272.55H15.4053C16.1053 272.55 16.6386 272.4 17.0053 272.1C17.3886 271.783 17.5803 271.325 17.5803 270.725C17.5803 270.125 17.3886 269.667 17.0053 269.35C16.6386 269.033 16.1053 268.875 15.4053 268.875H12.6053V272.55ZM15.7553 279.55C16.4719 279.55 17.0219 279.392 17.4053 279.075C17.8053 278.742 18.0053 278.267 18.0053 277.65C18.0053 277.033 17.7969 276.55 17.3803 276.2C16.9803 275.85 16.4219 275.675 15.7053 275.675H12.6053V279.55H15.7553ZM29.0848 279.7H34.6848V283H24.8098V265.45H29.0848V279.7ZM45.0238 283.175C43.3738 283.175 41.8572 282.792 40.4738 282.025C39.1072 281.258 38.0155 280.192 37.1988 278.825C36.3988 277.442 35.9988 275.892 35.9988 274.175C35.9988 272.458 36.3988 270.917 37.1988 269.55C38.0155 268.183 39.1072 267.117 40.4738 266.35C41.8572 265.583 43.3738 265.2 45.0238 265.2C46.6738 265.2 48.1822 265.583 49.5488 266.35C50.9322 267.117 52.0155 268.183 52.7988 269.55C53.5988 270.917 53.9988 272.458 53.9988 274.175C53.9988 275.892 53.5988 277.442 52.7988 278.825C51.9988 280.192 50.9155 281.258 49.5488 282.025C48.1822 282.792 46.6738 283.175 45.0238 283.175ZM45.0238 279.275C46.4238 279.275 47.5405 278.808 48.3738 277.875C49.2238 276.942 49.6488 275.708 49.6488 274.175C49.6488 272.625 49.2238 271.392 48.3738 270.475C47.5405 269.542 46.4238 269.075 45.0238 269.075C43.6072 269.075 42.4738 269.533 41.6238 270.45C40.7905 271.367 40.3738 272.608 40.3738 274.175C40.3738 275.725 40.7905 276.967 41.6238 277.9C42.4738 278.817 43.6072 279.275 45.0238 279.275ZM55.6521 274.2C55.6521 272.467 56.0271 270.925 56.7771 269.575C57.5271 268.208 58.5688 267.15 59.9021 266.4C61.2521 265.633 62.7771 265.25 64.4771 265.25C66.5605 265.25 68.3438 265.8 69.8271 266.9C71.3105 268 72.3021 269.5 72.8021 271.4H68.1021C67.7521 270.667 67.2521 270.108 66.6021 269.725C65.9688 269.342 65.2438 269.15 64.4271 269.15C63.1105 269.15 62.0438 269.608 61.2271 270.525C60.4105 271.442 60.0021 272.667 60.0021 274.2C60.0021 275.733 60.4105 276.958 61.2271 277.875C62.0438 278.792 63.1105 279.25 64.4271 279.25C65.2438 279.25 65.9688 279.058 66.6021 278.675C67.2521 278.292 67.7521 277.733 68.1021 277H72.8021C72.3021 278.9 71.3105 280.4 69.8271 281.5C68.3438 282.583 66.5605 283.125 64.4771 283.125C62.7771 283.125 61.2521 282.75 59.9021 282C58.5688 281.233 57.5271 280.175 56.7771 278.825C56.0271 277.475 55.6521 275.933 55.6521 274.2ZM85.5951 283L79.6951 275.25V283H75.4201V265.45H79.6951V273.15L85.5451 265.45H90.5701L83.7701 274.05L90.8201 283H85.5951ZM92.1268 274.2C92.1268 272.467 92.5018 270.925 93.2518 269.575C94.0018 268.208 95.0434 267.15 96.3768 266.4C97.7268 265.633 99.2518 265.25 100.952 265.25C103.035 265.25 104.818 265.8 106.302 266.9C107.785 268 108.777 269.5 109.277 271.4H104.577C104.227 270.667 103.727 270.108 103.077 269.725C102.443 269.342 101.718 269.15 100.902 269.15C99.5851 269.15 98.5184 269.608 97.7018 270.525C96.8851 271.442 96.4768 272.667 96.4768 274.2C96.4768 275.733 96.8851 276.958 97.7018 277.875C98.5184 278.792 99.5851 279.25 100.902 279.25C101.718 279.25 102.443 279.058 103.077 278.675C103.727 278.292 104.227 277.733 104.577 277H109.277C108.777 278.9 107.785 280.4 106.302 281.5C104.818 282.583 103.035 283.125 100.952 283.125C99.2518 283.125 97.7268 282.75 96.3768 282C95.0434 281.233 94.0018 280.175 93.2518 278.825C92.5018 277.475 92.1268 275.933 92.1268 274.2ZM127.095 265.45V283H122.82V275.775H116.17V283H111.895V265.45H116.17V272.325H122.82V265.45H127.095ZM141.106 279.9H134.556L133.506 283H129.031L135.381 265.45H140.331L146.681 283H142.156L141.106 279.9ZM140.006 276.6L137.831 270.175L135.681 276.6H140.006ZM152.888 265.45V283H148.613V265.45H152.888ZM171.687 283H167.412L160.262 272.175V283H155.987V265.45H160.262L167.412 276.325V265.45H171.687V283ZM191.733 271C191.417 270.417 190.958 269.975 190.358 269.675C189.775 269.358 189.083 269.2 188.283 269.2C186.9 269.2 185.792 269.658 184.958 270.575C184.125 271.475 183.708 272.683 183.708 274.2C183.708 275.817 184.142 277.083 185.008 278C185.892 278.9 187.1 279.35 188.633 279.35C189.683 279.35 190.567 279.083 191.283 278.55C192.017 278.017 192.55 277.25 192.883 276.25H187.458V273.1H196.758V277.075C196.442 278.142 195.9 279.133 195.133 280.05C194.383 280.967 193.425 281.708 192.258 282.275C191.092 282.842 189.775 283.125 188.308 283.125C186.575 283.125 185.025 282.75 183.658 282C182.308 281.233 181.25 280.175 180.483 278.825C179.733 277.475 179.358 275.933 179.358 274.2C179.358 272.467 179.733 270.925 180.483 269.575C181.25 268.208 182.308 267.15 183.658 266.4C185.008 265.633 186.55 265.25 188.283 265.25C190.383 265.25 192.15 265.758 193.583 266.775C195.033 267.792 195.992 269.2 196.458 271H191.733ZM210.051 279.9H203.501L202.451 283H197.976L204.326 265.45H209.276L215.626 283H211.101L210.051 279.9ZM208.951 276.6L206.776 270.175L204.626 276.6H208.951ZM237.434 265.45V283H233.159V272.475L229.234 283H225.784L221.834 272.45V283H217.559V265.45H222.609L227.534 277.6L232.409 265.45H237.434ZM244.783 268.875V272.425H250.508V275.725H244.783V279.575H251.258V283H240.508V265.45H251.258V268.875H244.783ZM263.606 279.7H269.206V283H259.331V265.45H263.606V279.7ZM275.52 265.45V283H271.245V265.45H275.52ZM284.968 283.175C283.685 283.175 282.535 282.967 281.518 282.55C280.502 282.133 279.685 281.517 279.068 280.7C278.468 279.883 278.152 278.9 278.118 277.75H282.668C282.735 278.4 282.96 278.9 283.343 279.25C283.727 279.583 284.227 279.75 284.843 279.75C285.477 279.75 285.977 279.608 286.343 279.325C286.71 279.025 286.893 278.617 286.893 278.1C286.893 277.667 286.743 277.308 286.443 277.025C286.16 276.742 285.802 276.508 285.368 276.325C284.952 276.142 284.352 275.933 283.568 275.7C282.435 275.35 281.51 275 280.793 274.65C280.077 274.3 279.46 273.783 278.943 273.1C278.427 272.417 278.168 271.525 278.168 270.425C278.168 268.792 278.76 267.517 279.943 266.6C281.127 265.667 282.668 265.2 284.568 265.2C286.502 265.2 288.06 265.667 289.243 266.6C290.427 267.517 291.06 268.8 291.143 270.45H286.518C286.485 269.883 286.277 269.442 285.893 269.125C285.51 268.792 285.018 268.625 284.418 268.625C283.902 268.625 283.485 268.767 283.168 269.05C282.852 269.317 282.693 269.708 282.693 270.225C282.693 270.792 282.96 271.233 283.493 271.55C284.027 271.867 284.86 272.208 285.993 272.575C287.127 272.958 288.043 273.325 288.743 273.675C289.46 274.025 290.077 274.533 290.593 275.2C291.11 275.867 291.368 276.725 291.368 277.775C291.368 278.775 291.11 279.683 290.593 280.5C290.093 281.317 289.36 281.967 288.393 282.45C287.427 282.933 286.285 283.175 284.968 283.175ZM306.624 265.45V268.875H301.974V283H297.699V268.875H293.049V265.45H306.624Z" fill="#6441A4"/>
</svg>
