<svg width="91" height="92" viewBox="0 0 91 92" fill="none" xmlns="http://www.w3.org/2000/svg">
<path d="M27.0634 12.4753L8.91803 23.0921L8.95443 44.3257L9.00903 65.5593L26.936 76.0473C36.8004 81.8249 45.0268 86.5537 45.227 86.5537C45.4454 86.5721 53.69 81.8617 63.5726 76.0841L81.536 65.5961L81.4996 44.2705L81.445 22.9449L63.518 12.4753C53.6536 6.71606 45.5182 1.95046 45.409 1.91366C45.318 1.87686 37.0552 6.62406 27.0634 12.4753ZM62.2622 14.6097L79.079 24.4353L79.1336 34.7577L79.17 45.0801H78.7696C77.987 45.0801 77.0042 44.6937 76.0396 44.0313C74.7838 43.1665 74.2014 42.9273 72.9456 42.7801L71.9264 42.6513L71.8354 36.4505C71.7444 29.6977 71.708 29.3481 70.5978 27.0481C70.2156 26.2937 69.5786 25.4105 68.8142 24.6377C66.885 22.6873 64.5736 21.7121 61.88 21.7121C59.2956 21.7121 57.1116 22.5585 55.2916 24.2513C53.8902 25.5577 53.1076 26.8089 52.4888 28.6305C51.9064 30.3785 51.8336 32.8073 52.2886 34.4081C52.6526 35.6593 53.69 37.4257 54.8366 38.7321L55.692 39.7257V44.8041V49.9009L54.8548 50.8393C53.0166 52.9185 52.1794 55.0713 52.1976 57.7761C52.1976 62.7809 55.328 66.8105 59.969 67.8041C61.5706 68.1353 62.3714 68.1353 63.973 67.8041C67.5584 67.0313 70.3976 64.3081 71.4532 60.6281C71.708 59.6897 71.7808 58.4201 71.8354 52.0905L71.9264 44.6753L72.5816 44.7673C73.346 44.8593 74.0922 45.1905 75.621 46.0737C76.2762 46.4785 77.168 46.8097 77.9324 46.9385L79.17 47.1593V55.6417V64.1241L62.2258 73.9865L45.2998 83.8489L28.3738 73.9865L11.466 64.1241V53.7833V43.4241L12.0666 43.5529C12.9766 43.7185 13.7956 44.1049 14.7238 44.7857C15.6702 45.4849 16.653 45.8161 17.7996 45.8161H18.564V51.8329C18.564 56.5801 18.6368 58.1257 18.837 59.0457C19.747 62.9097 22.7318 65.8905 26.5356 66.7001C28.0644 67.0313 28.9016 67.0313 30.4304 66.7001C34.2342 65.8905 37.219 62.9097 38.129 59.0457C38.8934 55.7153 38.0016 52.6241 35.4354 49.7537L34.58 48.7969V43.7553V38.7137L35.4718 37.7753C37.1098 35.9905 38.22 33.2305 38.22 30.9121C38.22 28.4465 37.128 25.5209 35.581 23.7729C33.7792 21.7489 31.213 20.6081 28.4466 20.6081C25.5346 20.6081 23.5326 21.4361 21.567 23.4417C20.0746 24.9689 19.4194 26.1097 18.928 28.0785C18.6004 29.3665 18.564 30.1209 18.564 36.7265V43.9577L17.8724 43.8473C17.1626 43.7553 15.9068 43.1849 14.6146 42.3937C14.196 42.1361 13.3224 41.8233 12.7036 41.6945L11.557 41.4553V32.9361V24.3985L28.301 14.6097C37.5102 9.21846 45.136 4.80246 45.2452 4.80246C45.3544 4.78406 52.9984 9.20006 62.2622 14.6097ZM25.571 26.3305C27.0998 27.8393 25.2252 30.5441 23.3142 29.5505C21.749 28.7225 21.7672 26.5513 23.3506 25.8337C24.115 25.5025 24.8976 25.6681 25.571 26.3305ZM63.7 27.8945C63.8092 28.1521 63.882 28.7225 63.882 29.1825V29.9921H65.1742C66.6484 29.9921 67.158 30.1945 67.158 30.7833C67.158 31.4825 66.8122 31.6481 65.3016 31.6481H63.882V32.7153C63.882 33.9481 63.518 34.6473 62.9174 34.5553C62.3896 34.4817 62.062 33.7641 62.062 32.6049V31.6481H60.8244C59.4958 31.6481 59.15 31.4641 59.15 30.7833C59.15 30.2129 59.6596 29.9921 60.9336 29.9921H62.0256L62.0984 28.8697C62.1894 27.6921 62.3714 27.4161 63.1176 27.4161C63.3906 27.4161 63.5908 27.5633 63.7 27.8945ZM31.2312 32.0345C31.7226 32.2921 32.214 33.1385 32.214 33.7641C32.214 34.8313 31.213 35.8801 30.212 35.8801C29.6842 35.8801 28.8288 35.4017 28.5012 34.9233C28.3374 34.7025 28.21 34.1689 28.21 33.7457C28.21 32.1265 29.7024 31.2985 31.2312 32.0345ZM27.9188 39.1185C28.1372 39.3209 28.21 39.7809 28.21 40.7745C28.21 42.3569 28.0098 42.8721 27.4274 42.8721C26.7176 42.8721 26.572 42.5409 26.572 40.8481C26.572 39.2289 26.7176 38.8241 27.3182 38.8241C27.5002 38.8241 27.7732 38.9529 27.9188 39.1185ZM63.5908 39.9649C63.9184 40.4433 63.9912 42.3753 63.7 43.1297C63.4452 43.8289 62.4988 43.8105 62.2258 43.0929C61.971 42.4305 62.0984 40.2409 62.4078 39.8545C62.7536 39.4313 63.2632 39.4865 63.5908 39.9649ZM27.9188 45.1905C28.2828 45.5401 28.3374 48.3737 27.9916 48.7233C27.6822 49.0361 26.8086 48.9993 26.6812 48.6497C26.481 48.1161 26.5538 45.3561 26.7904 45.1169C27.0998 44.8041 27.5912 44.8409 27.9188 45.1905ZM63.5908 46.0369C63.9184 46.5153 63.9912 48.4473 63.7 49.2017C63.4452 49.9009 62.4988 49.8825 62.2258 49.1649C61.971 48.5025 62.0984 46.3129 62.4078 45.9265C62.7536 45.5033 63.2632 45.5585 63.5908 46.0369ZM61.2976 53.1025C61.7526 53.4153 62.244 54.2801 62.244 54.7401C62.244 55.3105 61.698 56.2305 61.1702 56.5433C60.1146 57.1689 58.8588 56.7457 58.3128 55.6049C57.9306 54.7953 58.2036 53.7465 58.9134 53.1945C59.4776 52.7345 60.7152 52.6793 61.2976 53.1025ZM27.8824 54.2249C28.1372 54.4457 28.21 54.7953 28.21 55.6969V56.8561H29.4476C30.8126 56.8561 31.122 57.0401 31.122 57.7945C31.122 58.4017 30.8672 58.5121 29.3748 58.5121H28.21V59.5977C28.21 60.5361 28.1554 60.7385 27.8096 60.9777C27.3 61.3457 27.209 61.3457 26.8632 60.9777C26.663 60.7937 26.572 60.3521 26.572 59.5977V58.5121H25.0614C23.4598 58.5121 23.114 58.3649 23.114 57.6473C23.114 57.0585 23.6236 56.8561 25.1888 56.8561H26.572V55.6785C26.572 54.0961 27.0998 53.5073 27.8824 54.2249ZM67.5038 59.3585C68.9416 60.5729 68.0134 62.9281 66.1024 62.9281C65.6474 62.9281 65.3198 62.7625 64.8648 62.3025C64.337 61.7689 64.246 61.5481 64.246 60.8121C64.246 60.0761 64.337 59.8737 64.8102 59.4137C65.5746 58.6961 66.703 58.6777 67.5038 59.3585Z" fill="#D6D6D6"/>
</svg>
