<svg width="31" height="31" viewBox="0 0 31 31" fill="none" xmlns="http://www.w3.org/2000/svg">
<path fill-rule="evenodd" clip-rule="evenodd" d="M0 15.6074C0 24.0276 6.93959 30.8535 15.5 30.8535C24.0604 30.8535 31 24.0276 31 15.6074C31 7.18714 24.0604 0.361206 15.5 0.361206C6.93959 0.361206 0 7.18714 0 15.6074ZM12.6583 22.5952L12.9221 18.7088L12.9218 18.7087L20.1093 12.3288C20.4247 12.0534 20.0404 11.9192 19.6216 12.1689L10.7514 17.6734L6.9199 16.4971C6.09247 16.2479 6.08653 15.6887 7.10567 15.2866L22.036 9.62379C22.7179 9.31927 23.3761 9.78489 23.1158 10.8115L20.5732 22.5972C20.3956 23.4347 19.8811 23.635 19.1683 23.2481L15.2951 20.4334L13.4333 22.214C13.4275 22.2196 13.4216 22.2252 13.4158 22.2308C13.2076 22.4302 13.0353 22.5952 12.6583 22.5952Z" fill="#D6D6D6"/>
</svg>
