<svg width="31" height="31" viewBox="0 0 31 31" fill="none" xmlns="http://www.w3.org/2000/svg">
<path d="M12.1868 0C9.75735 0 7.78813 1.97121 7.78813 4.40308C7.78813 5.60563 8.26925 6.69623 9.04988 7.49089H2.58333e-05V14.8293C0.806646 13.8966 1.99924 13.305 3.32844 13.305C5.75791 13.305 7.72716 15.2762 7.72716 17.7081C7.72716 20.1399 5.75791 22.1111 3.32842 22.1111C1.99924 22.1111 0.806646 21.5196 0 20.5868V31H9.50667C8.50139 30.193 7.85767 28.954 7.85767 27.5638C7.85767 25.1318 9.82692 23.1607 12.2564 23.1607C14.6859 23.1607 16.6551 25.1319 16.6551 27.5637C16.6551 28.9539 16.0114 30.1929 15.0061 31H23.486V21.8019C24.2824 22.6013 25.3842 23.0954 26.6012 23.0954C29.0307 23.0954 31 21.1242 31 18.6923C31 16.2604 29.0307 14.2893 26.6012 14.2893C25.3842 14.2893 24.2824 14.7833 23.486 15.5827V7.49087H15.3238C16.1047 6.69615 16.5856 5.60578 16.5856 4.40306C16.5856 1.97119 14.6163 0 12.1868 0Z" fill="#6441A4"/>
</svg>
