<?xml version="1.0" standalone="no"?>
<!DOCTYPE svg PUBLIC "-//W3C//DTD SVG 20010904//EN"
 "http://www.w3.org/TR/2001/REC-SVG-20010904/DTD/svg10.dtd">
<svg version="1.0" xmlns="http://www.w3.org/2000/svg"
 width="200.000000pt" height="200.000000pt" viewBox="0 0 200.000000 200.000000"
 preserveAspectRatio="xMidYMid meet">

<g transform="translate(0.000000,200.000000) scale(0.100000,-0.100000)"
fill="#000000" stroke="none">
<path d="M390 1485 l0 -115 120 0 120 0 0 115 0 115 -120 0 -120 0 0 -115z"/>
<path d="M880 1360 l0 -240 -245 0 -245 0 0 -360 0 -360 120 0 120 0 0 240 0
240 125 0 125 0 0 -120 0 -120 115 0 115 0 0 120 0 120 125 0 125 0 0 -240 0
-240 120 0 120 0 0 360 0 360 -242 2 -243 3 -3 238 -2 237 -115 0 -115 0 0
-240z"/>
<path d="M1360 1485 l0 -115 120 0 120 0 0 115 0 115 -120 0 -120 0 0 -115z"/>
</g>
</svg>
