<svg width="27" height="17" viewBox="0 0 27 17" fill="none" xmlns="http://www.w3.org/2000/svg">
<path d="M24.9003 5.91667C24.697 5.34479 24.3628 4.8284 23.9243 4.40876C23.4859 3.98913 22.9553 3.6779 22.375 3.49996C22.1328 2.70497 21.6417 2.00873 20.9742 1.51369C20.3066 1.01866 19.4978 0.750963 18.6667 0.75H8.33333C7.50225 0.750963 6.69341 1.01866 6.02585 1.51369C5.35828 2.00873 4.86723 2.70497 4.62496 3.49996C4.04467 3.67781 3.51405 3.98901 3.07557 4.40865C2.63708 4.8283 2.3029 5.34474 2.09975 5.91667H0.583334V11.0833H2.09975C2.3029 11.6553 2.63708 12.1717 3.07557 12.5913C3.51405 13.011 4.04467 13.3222 4.62496 13.5C4.86741 14.2949 5.35851 14.991 6.02603 15.4861C6.69356 15.9811 7.5023 16.2488 8.33333 16.25H10.4065L12.849 12.0198C12.915 11.9055 13.0099 11.8106 13.1242 11.7447C13.2384 11.6787 13.3681 11.644 13.5 11.644C13.6319 11.644 13.7616 11.6787 13.8758 11.7447C13.9901 11.8106 14.085 11.9055 14.151 12.0198L16.5948 16.25H18.6667C19.4977 16.2488 20.3064 15.9811 20.974 15.4861C21.6415 14.991 22.1326 14.2949 22.375 13.5C22.9553 13.3221 23.4859 13.0109 23.9243 12.5912C24.3628 12.1716 24.697 11.6552 24.9003 11.0833H26.4167V5.91667H24.9003ZM22.5417 9.79167C22.5417 10.1342 22.4056 10.4628 22.1633 10.705C21.9211 10.9472 21.5926 11.0833 21.25 11.0833H19.9583V12.375C19.9583 12.7176 19.8223 13.0461 19.58 13.2883C19.3378 13.5306 19.0092 13.6667 18.6667 13.6667H18.0854L16.3882 10.7281C16.0954 10.2212 15.6744 9.80021 15.1675 9.50752C14.6605 9.21484 14.0854 9.06076 13.5 9.06076C12.9146 9.06076 12.3395 9.21484 11.8325 9.50752C11.3256 9.80021 10.9046 10.2212 10.6118 10.7281L8.91458 13.6667H8.33333C7.99087 13.6663 7.66253 13.5301 7.42037 13.288C7.17821 13.0458 7.04201 12.7175 7.04167 12.375V11.0833H5.75C5.40753 11.083 5.07919 10.9468 4.83703 10.7046C4.59487 10.4625 4.45868 10.1341 4.45833 9.79167V7.20833C4.45868 6.86587 4.59487 6.53752 4.83703 6.29536C5.07919 6.0532 5.40753 5.91701 5.75 5.91667H7.04167V4.625C7.04201 4.28253 7.17821 3.95419 7.42037 3.71203C7.66253 3.46987 7.99087 3.33368 8.33333 3.33333H18.6667C19.0091 3.33368 19.3375 3.46987 19.5796 3.71203C19.8218 3.95419 19.958 4.28253 19.9583 4.625V5.91667H21.25C21.5925 5.91701 21.9208 6.0532 22.163 6.29536C22.4051 6.53752 22.5413 6.86587 22.5417 7.20833V9.79167Z" fill="#6441A4"/>
</svg>
