<svg width="31" height="31" viewBox="0 0 31 31" fill="none" xmlns="http://www.w3.org/2000/svg">
<path fill-rule="evenodd" clip-rule="evenodd" d="M15.5 30.4922C6.93959 30.4922 0 23.6663 0 15.2461C0 6.82591 6.93959 0 15.5 0C24.0604 0 31 6.82591 31 15.2461C31 23.6663 24.0604 30.4922 15.5 30.4922ZM18.8129 15.4161L9.4844 6.12004C9.0991 6.20567 8.78333 6.53791 8.78333 7.20573V23.6588C8.78333 24.2877 9.03173 24.73 9.49108 24.7741L18.8129 15.4161ZM21.7274 12.4901L19.2345 14.9737L9.48455 6.1199C9.72511 6.06652 9.99688 6.11382 10.2462 6.24935L21.7274 12.4901ZM19.6632 15.4007L22.4762 17.9171L25.7986 16.1051C26.2585 15.8543 26.7404 15.2143 25.7986 14.7027C25.5594 14.5725 22.4908 12.905 22.4908 12.905L19.6632 15.4007ZM10.2462 24.5864C9.95493 24.7452 9.70174 24.8008 9.49123 24.7741L19.2346 15.7877L21.7301 18.3237L10.2462 24.5864Z" fill="#D6D6D6"/>
</svg>
