<svg width="31" height="31" viewBox="0 0 31 31" fill="none" xmlns="http://www.w3.org/2000/svg">
<path fill-rule="evenodd" clip-rule="evenodd" d="M15.5 30.4923C24.0604 30.4923 31 23.6664 31 15.2462C31 6.82594 24.0604 0 15.5 0C6.93959 0 0 6.82594 0 15.2462C0 23.6664 6.93959 30.4923 15.5 30.4923ZM16.9182 15.738C16.9182 12.4786 14.2504 10.1819 10.9592 10.1819C7.66801 10.1819 5 12.4786 5 15.738C5 18.9974 7.66821 21.6396 10.9592 21.6396C14.2502 21.6396 16.9182 18.9974 16.9182 15.738ZM23.4552 15.738C23.4552 12.6692 22.1212 10.1819 20.4756 10.1819C18.83 10.1819 17.4962 12.67 17.4962 15.738C17.4962 18.806 18.8302 21.2941 20.4758 21.2941C22.1214 21.2941 23.4552 18.806 23.4552 15.738ZM26.1293 15.738C26.1293 12.989 25.66 10.7606 25.0813 10.7606C24.5027 10.7606 24.0336 12.9892 24.0336 15.738C24.0336 18.4868 24.5025 20.7154 25.0813 20.7154C25.6602 20.7154 26.1293 18.4862 26.1293 15.738Z" fill="#D6D6D6"/>
</svg>
