<svg width="25" height="18" viewBox="0 0 25 18" fill="none" xmlns="http://www.w3.org/2000/svg">
<path d="M8.62501 0.200012C6.36404 0.200012 4.19567 1.09818 2.59692 2.69693C0.998173 4.29567 0.100006 6.46404 0.100006 8.72501C0.100006 10.986 0.998173 13.1544 2.59692 14.7531C4.19567 16.3518 6.36404 17.25 8.62501 17.25H16.375C18.636 17.25 20.8043 16.3518 22.4031 14.7531C24.0018 13.1544 24.9 10.986 24.9 8.72501C24.9 6.46404 24.0018 4.29567 22.4031 2.69693C20.8043 1.09818 18.636 0.200012 16.375 0.200012H8.62501ZM6.30001 5.62501C6.30001 5.41947 6.38166 5.22235 6.527 5.077C6.67234 4.93166 6.86946 4.85001 7.07501 4.85001C7.28055 4.85001 7.47767 4.93166 7.62301 5.077C7.76835 5.22235 7.85001 5.41947 7.85001 5.62501V7.95001H10.175C10.3805 7.95001 10.5777 8.03166 10.723 8.177C10.8684 8.32234 10.95 8.51947 10.95 8.72501C10.95 8.93055 10.8684 9.12768 10.723 9.27302C10.5777 9.41836 10.3805 9.50001 10.175 9.50001H7.85001V11.825C7.85001 12.0306 7.76835 12.2277 7.62301 12.373C7.47767 12.5184 7.28055 12.6 7.07501 12.6C6.86946 12.6 6.67234 12.5184 6.527 12.373C6.38166 12.2277 6.30001 12.0306 6.30001 11.825V9.50001H3.97501C3.76946 9.50001 3.57234 9.41836 3.427 9.27302C3.28166 9.12768 3.20001 8.93055 3.20001 8.72501C3.20001 8.51947 3.28166 8.32234 3.427 8.177C3.57234 8.03166 3.76946 7.95001 3.97501 7.95001H6.30001V5.62501ZM20.25 6.40001C20.25 6.8111 20.0867 7.20535 19.796 7.49603C19.5053 7.78671 19.1111 7.95001 18.7 7.95001C18.2889 7.95001 17.8947 7.78671 17.604 7.49603C17.3133 7.20535 17.15 6.8111 17.15 6.40001C17.15 5.98893 17.3133 5.59468 17.604 5.304C17.8947 5.01332 18.2889 4.85001 18.7 4.85001C19.1111 4.85001 19.5053 5.01332 19.796 5.304C20.0867 5.59468 20.25 5.98893 20.25 6.40001ZM15.6 12.6C15.1889 12.6 14.7947 12.4367 14.504 12.146C14.2133 11.8553 14.05 11.4611 14.05 11.05C14.05 10.6389 14.2133 10.2447 14.504 9.954C14.7947 9.66332 15.1889 9.50001 15.6 9.50001C16.0111 9.50001 16.4053 9.66332 16.696 9.954C16.9867 10.2447 17.15 10.6389 17.15 11.05C17.15 11.4611 16.9867 11.8553 16.696 12.146C16.4053 12.4367 16.0111 12.6 15.6 12.6Z" fill="#6441A4"/>
</svg>
