<svg width="29" height="29" viewBox="0 0 29 29" fill="none" xmlns="http://www.w3.org/2000/svg">
<path d="M10.625 4.16666C4.91582 4.16666 0.291656 8.79082 0.291656 14.5C0.291656 20.2092 4.91582 24.8333 10.625 24.8333C16.3342 24.8333 20.9583 20.2092 20.9583 14.5C20.9583 8.79082 16.3342 4.16666 10.625 4.16666ZM14.5 12.5625H11.9167V19.0208H9.33332V12.5625H6.74999V10.625H14.5V12.5625ZM25.1562 3.84374L28.7083 5.45832L25.1562 7.07291L23.5417 10.625L21.9271 7.07291L18.375 5.45832L21.9271 3.84374L23.5417 0.291656L25.1562 3.84374ZM25.1562 21.9271L28.7083 23.5417L25.1562 25.1562L23.5417 28.7083L21.9271 25.1562L18.375 23.5417L21.9271 21.9271L23.5417 18.375L25.1562 21.9271Z" fill="#3E207F"/>
</svg>
