<svg width="31" height="31" viewBox="0 0 31 31" fill="none" xmlns="http://www.w3.org/2000/svg">
<path fill-rule="evenodd" clip-rule="evenodd" d="M15.5 0C6.93959 0 0 6.82591 0 15.2461C0 23.6663 6.93959 30.4922 15.5 30.4922C24.0604 30.4922 31 23.6663 31 15.2461C31 6.82591 24.0604 0 15.5 0ZM15.0683 12.9198L15.0358 12.3922C14.9382 11.0249 15.7947 9.776 17.15 9.29152C17.6487 9.11926 18.4944 9.09772 19.0473 9.24845C19.2641 9.31305 19.6761 9.52838 19.9689 9.72217L20.5001 10.0775L21.0856 9.89443C21.4108 9.79753 21.8445 9.63604 22.0397 9.52838C22.224 9.43148 22.3866 9.37765 22.3866 9.40995C22.3866 9.59297 21.9855 10.2174 21.6494 10.5619C21.194 11.0464 21.3241 11.0895 22.2457 10.7665C22.7986 10.5835 22.8094 10.5835 22.701 10.788C22.636 10.8957 22.2999 11.2725 21.9421 11.617C21.3349 12.2092 21.3024 12.2738 21.3024 12.769C21.3024 13.5334 20.9338 15.1269 20.5652 15.9989C19.8821 17.6354 18.4185 19.3257 16.9548 20.1763C14.8948 21.3713 12.1518 21.6728 9.84249 20.973C9.07272 20.7361 7.75 20.1332 7.75 20.0255C7.75 19.9932 8.15115 19.9502 8.63904 19.9394C9.65818 19.9179 10.6773 19.6379 11.5447 19.1427L12.1301 18.7982L11.4579 18.5721C10.5038 18.2491 9.64734 17.5062 9.4305 16.8064C9.36545 16.5803 9.38713 16.5695 9.99428 16.5695L10.6231 16.5588L10.0919 16.3112C9.46302 15.9989 8.8884 15.4714 8.60651 14.9331C8.40052 14.5455 8.14031 13.5657 8.2162 13.4904C8.23789 13.4581 8.46557 13.5227 8.72577 13.6088C9.47387 13.878 9.57144 13.8134 9.13777 13.3612C8.32462 12.5429 8.07526 11.3264 8.46557 10.1744L8.64988 9.65757L9.36545 10.3574C10.8291 11.7678 12.553 12.6075 14.5262 12.8552L15.0683 12.9198Z" fill="#D6D6D6"/>
</svg>
