<?xml version="1.0" standalone="no"?>
<!DOCTYPE svg PUBLIC "-//W3C//DTD SVG 20010904//EN"
 "http://www.w3.org/TR/2001/REC-SVG-20010904/DTD/svg10.dtd">
<svg version="1.0" xmlns="http://www.w3.org/2000/svg"
 width="202.000000pt" height="284.000000pt" viewBox="0 0 202.000000 284.000000"
 preserveAspectRatio="xMidYMid meet">

<g transform="translate(0.000000,284.000000) scale(0.100000,-0.100000)"
fill="#000000" stroke="none">
<path d="M167 2824 c-29 -9 -63 -30 -87 -54 -72 -72 -70 -37 -70 -1009 0 -924
0 -926 49 -1005 25 -40 833 -702 889 -728 47 -22 77 -22 124 0 56 26 864 688
889 728 49 79 49 81 49 1005 0 971 2 937 -70 1009 -72 72 -46 70 -934 69 -667
0 -799 -3 -839 -15z m1469 -273 c23 -10 54 -36 70 -57 l29 -37 0 -356 c0 -313
-2 -360 -17 -386 -24 -45 -68 -85 -113 -106 l-39 -18 27 -10 c46 -18 88 -54
115 -101 27 -45 27 -47 30 -275 3 -224 3 -231 -20 -272 -15 -28 -99 -110 -253
-246 l-230 -204 -5 431 c-5 412 -6 433 -26 466 -11 19 -35 45 -54 57 -31 22
-43 23 -196 23 l-164 0 -2 -488 -3 -489 -230 204 c-153 136 -238 218 -253 245
l-22 42 2 741 3 742 29 37 c59 78 38 76 696 76 550 0 587 -2 626 -19z"/>
<path d="M790 2040 l0 -270 148 0 c134 0 152 2 192 23 88 45 99 83 100 335 l0
182 -220 0 -220 0 0 -270z"/>
</g>
</svg>
