<svg width="31" height="31" viewBox="0 0 31 31" fill="none" xmlns="http://www.w3.org/2000/svg">
<path fill-rule="evenodd" clip-rule="evenodd" d="M15.5 0.361206C6.93959 0.361206 0 7.18714 0 15.6074C0 24.0276 6.93959 30.8535 15.5 30.8535C24.0604 30.8535 31 24.0276 31 15.6074C31 7.18714 24.0604 0.361206 15.5 0.361206ZM9.62624 6.96787H21.8904C22.9246 6.96787 23.7667 7.78608 23.7667 8.79995V24.7551L21.7989 23.0653L20.6915 22.0692L19.52 21.0109L20.005 22.6562H9.62624C8.59202 22.6562 7.75 21.838 7.75 20.8241V8.79995C7.75 7.78608 8.59202 6.96787 9.62624 6.96787Z" fill="#D6D6D6"/>
<path fill-rule="evenodd" clip-rule="evenodd" d="M18.3576 18.5829C18.3576 18.5829 18.0281 18.2004 17.7536 17.8625C18.9525 17.5334 19.4101 16.8042 19.4101 16.8042C19.0349 17.0443 18.6779 17.2133 18.3576 17.3289C17.9 17.5156 17.4607 17.6402 17.0305 17.7113C16.1519 17.8714 15.3465 17.8269 14.6601 17.7024C14.1384 17.6046 13.6899 17.4623 13.3147 17.32C13.1041 17.2399 12.8753 17.1421 12.6465 17.0176C12.6328 17.0087 12.6191 17.002 12.6053 16.9954C12.5916 16.9887 12.5779 16.982 12.5642 16.9731C12.5459 16.9642 12.5367 16.9553 12.5275 16.9465C12.3628 16.8575 12.2713 16.7953 12.2713 16.7953C12.2713 16.7953 12.7106 17.5067 13.8729 17.8447C13.5984 18.1827 13.2597 18.5829 13.2597 18.5829C11.2371 18.5206 10.4683 17.231 10.4683 17.231C10.4683 14.3673 11.7862 12.0461 11.7862 12.0461C13.1041 11.0856 14.358 11.1123 14.358 11.1123L14.4495 11.219C12.8021 11.6814 12.0425 12.384 12.0425 12.384C12.0425 12.384 12.2438 12.2773 12.5825 12.1261C13.5618 11.7081 14.3397 11.5925 14.6601 11.5658L14.6806 11.5625C14.7267 11.5548 14.7677 11.548 14.8156 11.548C15.3739 11.4769 16.0055 11.4591 16.6644 11.5303C17.5339 11.6281 18.4674 11.8771 19.4193 12.384C19.4193 12.384 18.6963 11.717 17.1403 11.2546L17.2685 11.1123C17.2685 11.1123 18.5224 11.0856 19.8403 12.0461C19.8403 12.0461 21.1582 14.3673 21.1582 17.231C21.1582 17.231 20.3803 18.5206 18.3576 18.5829ZM14.3595 14.5909C13.842 14.5909 13.4333 15.0488 13.4333 15.6073C13.4333 16.1659 13.851 16.6237 14.3595 16.6237C14.8771 16.6237 15.2857 16.1659 15.2857 15.6073C15.2948 15.0488 14.8771 14.5909 14.3595 14.5909ZM16.7476 15.6073C16.7476 15.0488 17.1562 14.5909 17.6738 14.5909C18.1914 14.5909 18.6 15.0488 18.6 15.6073C18.6 16.1659 18.1914 16.6237 17.6738 16.6237C17.1653 16.6237 16.7476 16.1659 16.7476 15.6073Z" fill="#D6D6D6"/>
</svg>
