<svg width="31" height="31" viewBox="0 0 31 31" fill="none" xmlns="http://www.w3.org/2000/svg">
<path fill-rule="evenodd" clip-rule="evenodd" d="M15.5 0C6.93959 0 0 6.82594 0 15.2462C0 23.6664 6.93959 30.4923 15.5 30.4923C24.0604 30.4923 31 23.6664 31 15.2462C31 6.82594 24.0604 0 15.5 0ZM21.9594 10.0049C22.6708 10.1969 23.231 10.7626 23.4212 11.4811C23.7667 12.7833 23.7667 15.5003 23.7667 15.5003C23.7667 15.5003 23.7667 18.2171 23.4212 19.5194C23.231 20.2379 22.6708 20.8036 21.9594 20.9957C20.6701 21.3446 15.5 21.3446 15.5 21.3446C15.5 21.3446 10.3299 21.3446 9.04054 20.9957C8.32914 20.8036 7.76888 20.2379 7.57875 19.5194C7.23333 18.2171 7.23333 15.5003 7.23333 15.5003C7.23333 15.5003 7.23333 12.7833 7.57875 11.4811C7.76888 10.7626 8.32914 10.1969 9.04054 10.0049C10.3299 9.6559 15.5 9.6559 15.5 9.6559C15.5 9.6559 20.6701 9.6559 21.9594 10.0049Z" fill="#D6D6D6"/>
<path d="M13.95 18.2954V13.2134L18.0833 15.7545L13.95 18.2954Z" fill="#D6D6D6"/>
</svg>
